<?xml version="1.0" encoding="UTF-8" standalone="no"?>
<!-- Created with Inkscape (http://www.inkscape.org/) -->

<svg
   width="106.09792mm"
   height="13.229167mm"
   viewBox="0 0 106.09792 13.229167"
   version="1.1"
   id="svg5"
   sodipodi:docname="Logo.svg"
   inkscape:version="1.1.2 (b8e25be833, 2022-02-05)"
   xmlns:inkscape="http://www.inkscape.org/namespaces/inkscape"
   xmlns:sodipodi="http://sodipodi.sourceforge.net/DTD/sodipodi-0.dtd"
   xmlns="http://www.w3.org/2000/svg"
   xmlns:svg="http://www.w3.org/2000/svg">
  <sodipodi:namedview
     id="namedview18"
     pagecolor="#ffffff"
     bordercolor="#666666"
     borderopacity="1.0"
     inkscape:pageshadow="2"
     inkscape:pageopacity="0.0"
     inkscape:pagecheckerboard="0"
     inkscape:document-units="mm"
     showgrid="false"
     fit-margin-top="0"
     fit-margin-left="0"
     fit-margin-right="0"
     fit-margin-bottom="0"
     inkscape:zoom="1.7882327"
     inkscape:cx="198.79963"
     inkscape:cy="-107.08897"
     inkscape:window-width="1920"
     inkscape:window-height="1002"
     inkscape:window-x="-8"
     inkscape:window-y="-8"
     inkscape:window-maximized="1"
     inkscape:current-layer="svg5" />
  <defs
     id="defs2">
    <rect
       x="108.01347"
       y="367.79269"
       width="568.77979"
       height="252.94293"
       id="rect2630" />
  </defs>
  <g
     id="layer1"
     transform="matrix(1.7636628,0,0,1.0034065,-51.124555,-97.826004)">
    <g
       aria-label="barTravel"
       transform="scale(0.26458333)"
       id="text2628"
       style="font-size:40px;line-height:1.25;white-space:pre;shape-inside:url(#rect2630)">
      <path
         d="m 125.46157,405.0787 q 0,1.61133 -0.55338,3.1901 -0.53711,1.57878 -1.46485,3.01107 -0.92773,1.43229 -2.14843,2.66927 -1.20443,1.2207 -2.53906,2.14843 -1.31836,0.94401 -2.68555,1.51367 -1.36718,0.58594 -2.58788,0.69987 -0.42318,-0.0163 -0.84636,-0.19531 -0.42317,-0.16276 -0.76497,-0.42318 -0.3418,-0.24414 -0.56966,-0.53711 -0.21159,-0.27669 -0.21159,-0.52083 v -0.11393 q -0.0651,0.0163 -0.17904,0.0163 -0.34179,0 -0.60221,-0.16276 -0.24414,-0.16276 -0.42318,-0.42317 -0.16276,-0.26042 -0.24414,-0.60222 -0.0814,-0.32552 -0.0814,-0.66731 0,-0.30925 0.16276,-1.00912 0.16276,-0.71614 0.42318,-1.6927 0.32552,-1.23698 0.53711,-2.22982 0.21159,-0.99284 0.39062,-1.93685 0.17904,-0.96028 0.35808,-1.98567 0.19531,-1.02539 0.472,-2.32747 0.26042,-1.20443 0.50456,-2.27865 0.24414,-1.09049 0.52083,-2.13216 0.27669,-1.05794 0.58594,-2.0996 0.32552,-1.05794 0.73242,-2.18099 0.68359,-1.93685 1.31836,-2.83203 0.63476,-0.91146 1.35091,-0.91146 0.27669,0 0.58594,0.0651 0.32552,0.0488 0.58593,0.22786 0.26042,0.17904 0.42318,0.50456 0.17904,0.32552 0.17904,0.86263 0,0.53711 -0.13021,1.12304 -0.11394,0.56966 -0.29297,1.13933 -0.17904,0.56966 -0.39063,1.12304 -0.19531,0.53711 -0.37434,1.00912 -0.21159,0.55338 -0.43946,1.18815 -0.21159,0.61848 -0.43945,1.26953 -0.21159,0.63476 -0.42318,1.26953 -0.21159,0.63476 -0.39062,1.20442 -0.0488,0.14649 -0.22787,0.69987 -0.17903,0.53711 -0.4069,1.26953 -0.22786,0.73242 -0.45573,1.54622 -0.22786,0.79753 -0.37434,1.46485 0.8138,-1.10677 1.85546,-2.13216 1.04167,-1.02539 2.14844,-1.82292 1.10677,-0.79752 2.18099,-1.26953 1.07421,-0.48828 1.92057,-0.48828 0.60221,0 1.20442,0.17904 0.61849,0.17903 0.99284,0.69987 0.22786,0.30924 0.37435,0.68359 0.16276,0.37435 0.26042,0.76497 0.0977,0.37435 0.1302,0.7487 0.0488,0.37435 0.0488,0.68359 z m -12.33723,9.04947 q -0.0651,0.24414 -0.29296,0.63477 -0.21159,0.37435 -0.37435,0.63476 0.8138,-0.0651 1.75781,-0.35807 0.96028,-0.29297 1.90429,-0.76497 0.96029,-0.48828 1.85547,-1.12305 0.89518,-0.65104 1.61133,-1.39974 0.63476,-0.65104 1.12304,-1.39974 0.48828,-0.76497 0.83008,-1.54622 0.3418,-0.79752 0.52083,-1.57877 0.17904,-0.78125 0.17904,-1.46485 0,-0.45572 -0.14649,-0.76497 -0.14648,-0.30924 -0.42317,-0.30924 -0.7487,0 -1.59505,0.43945 -0.84636,0.43945 -1.72526,1.18815 -0.86263,0.73242 -1.69271,1.70898 -0.8138,0.96029 -1.52994,2.01823 -0.69987,1.04167 -1.22071,2.09961 -0.52083,1.05794 -0.78125,1.98567 z"
         style="font-weight:bold;font-size:33.3333px;font-family:'Segoe Script';-inkscape-font-specification:'Segoe Script, Bold'"
         id="path44103" />
      <path
         d="m 140.65037,396.89184 q 0,-0.0586 -0.0391,-0.21484 -0.0195,-0.17578 -0.0586,-0.27344 -0.64453,0.0781 -1.42578,0.50781 -0.76172,0.41016 -1.66016,1.26954 -0.87891,0.85937 -1.89453,2.22656 -1.01563,1.34765 -2.12891,3.30078 -0.29297,0.52734 -0.625,1.15234 -0.33203,0.60547 -0.625,1.3086 -0.27344,0.70312 -0.44922,1.5039 -0.17578,0.78125 -0.17578,1.66016 0,0.33203 0.17578,0.50781 0.19532,0.15625 0.39063,0.15625 0.44922,0 1.15234,-0.50781 0.72266,-0.52734 1.54297,-1.38672 0.83984,-0.85937 1.69922,-1.95312 0.87891,-1.11329 1.62109,-2.26563 0.74219,-1.17187 1.28907,-2.30469 0.5664,-1.15234 0.78125,-2.07031 0.0586,-0.29297 0.13671,-0.68359 0.0781,-0.39063 0.13672,-0.76172 0.0781,-0.39063 0.11719,-0.70313 0.0391,-0.3125 0.0391,-0.46875 z m 15.76172,2.46094 q 0,0.35156 -0.11719,0.74219 -0.11718,0.39062 -0.3125,0.78125 -0.17578,0.39062 -0.41015,0.78125 -0.23438,0.39062 -0.48828,0.72265 -1.13282,1.52344 -2.44141,2.8711 -1.28906,1.32812 -2.59766,2.5 -0.70312,0.625 -1.44531,1.13281 -0.74219,0.50781 -1.48437,0.87891 -0.74219,0.37109 -1.44532,0.5664 -0.70312,0.19532 -1.30859,0.19532 -0.74219,0 -1.42578,-0.46875 -0.68359,-0.46875 -1.21094,-1.17188 -0.50781,-0.72266 -0.82031,-1.54297 -0.29297,-0.82031 -0.29297,-1.52344 -0.23437,0.35157 -0.68359,0.9375 -0.44922,0.58594 -0.9375,1.19141 -0.48828,0.60547 -0.91797,1.11328 -0.41016,0.48828 -0.58594,0.70313 -0.625,0.66406 -1.44531,1.36718 -0.82031,0.70313 -1.64063,1.26954 -0.80078,0.5664 -1.5039,0.9375 -0.70313,0.35156 -1.07422,0.35156 -0.85938,0 -1.66016,-0.27344 -0.80078,-0.27344 -1.42578,-0.78125 -0.60547,-0.52734 -0.97656,-1.28906 -0.3711,-0.76172 -0.3711,-1.73828 0,-0.95703 0.25391,-2.08985 0.27344,-1.15234 0.72266,-2.38281 0.46875,-1.25 1.11328,-2.51953 0.64453,-1.26953 1.38672,-2.46094 0.76172,-1.21094 1.60156,-2.28515 0.83984,-1.07422 1.71875,-1.91407 1.5625,-1.48437 3.32031,-2.1875 1.75781,-0.70312 3.63281,-0.70312 0.48829,0 0.82032,0.13672 0.33203,0.13672 0.5664,0.37109 0.23438,0.21484 0.39063,0.50781 0.17578,0.29297 0.3125,0.58594 0.0977,0.13672 0.3125,0.39063 0.23437,0.23437 0.46875,0.52734 0.23437,0.29297 0.41015,0.58594 0.17579,0.29297 0.17579,0.52734 0,0.41016 -0.11719,0.89844 -0.11719,0.46875 -0.25391,1.09375 -0.11719,0.625 -0.23437,1.42578 -0.11719,0.78125 -0.11719,1.81641 0,0.58593 0.0781,1.36718 0.0977,0.78125 0.27344,1.46485 0.17578,0.68359 0.42969,1.17187 0.27344,0.46875 0.60547,0.46875 0.41015,0 0.72265,-0.0781 0.33204,-0.0977 0.625,-0.25391 0.29297,-0.17578 0.58594,-0.41016 0.3125,-0.23437 0.70313,-0.50781 1.21093,-0.8789 2.42187,-2.03125 1.23047,-1.15234 2.5,-2.36328 0.35156,-0.33203 0.72266,-0.74219 0.39062,-0.41015 0.78125,-0.76172 0.41015,-0.35156 0.80078,-0.58593 0.39062,-0.23438 0.74219,-0.23438 0.54687,0 0.54687,0.91797 z"
         style="font-weight:bold;font-family:'Segoe Script';-inkscape-font-specification:'Segoe Script, Bold'"
         id="path44105" />
      <path
         d="m 172.33006,398.59106 q 0,0.80078 -0.50781,1.32813 -0.50781,0.50781 -1.26953,0.50781 -0.52734,0 -0.95703,-0.19531 -0.41016,-0.19532 -0.76172,-0.42969 -0.35156,-0.25391 -0.66406,-0.44922 -0.29297,-0.19531 -0.60547,-0.19531 -0.35156,0 -0.76172,0.23437 -0.41016,0.23438 -0.85938,0.64453 -0.44921,0.39063 -0.9375,0.91797 -0.46875,0.52735 -0.9375,1.11328 -0.33203,0.41016 -0.74218,0.9961 -0.41016,0.5664 -0.82032,1.1914 -0.41015,0.625 -0.78125,1.26954 -0.37109,0.64453 -0.64453,1.1914 -0.23437,0.48828 -0.52734,1.13281 -0.27344,0.64454 -0.52734,1.3086 -0.23438,0.66406 -0.42969,1.26953 -0.19531,0.60547 -0.25391,1.01562 -0.11719,0.76172 -0.23437,1.40625 -0.11719,0.64454 -0.33203,1.11329 -0.19532,0.44921 -0.54688,0.70312 -0.33203,0.25391 -0.91797,0.25391 -1.05469,0 -1.58203,-0.44922 -0.52734,-0.44922 -0.76172,-1.15235 -0.21484,-0.70312 -0.2539,-1.54296 -0.0391,-0.83985 -0.11719,-1.6211 -0.0586,-0.50781 -0.0977,-1.01562 -0.0391,-0.50782 -0.0781,-1.05469 -0.0195,-0.56641 -0.0391,-1.19141 -0.0195,-0.64453 -0.0195,-1.40625 0,-0.99609 0.0781,-2.22656 0.0781,-1.23047 0.17578,-2.36328 0.11719,-1.13281 0.23437,-2.01172 0.13672,-0.87891 0.23438,-1.17187 0.19531,-0.52735 0.52734,-0.9961 0.33203,-0.48828 0.72266,-0.83984 0.41016,-0.3711 0.83984,-0.58594 0.44922,-0.21484 0.85938,-0.21484 0.37109,0 0.74219,0.0976 0.39062,0.0977 0.68359,0.33203 0.3125,0.23438 0.50781,0.625 0.19531,0.3711 0.19531,0.9375 0,0.13672 -0.0977,0.44922 -0.0977,0.29297 -0.25391,0.85938 -0.17578,0.60547 -0.39062,1.40625 -0.21485,0.80078 -0.41016,1.64062 -0.17578,0.83985 -0.3125,1.66016 -0.13672,0.82031 -0.15625,1.46484 0.0977,-0.21484 0.35156,-0.70312 0.25391,-0.50781 0.52735,-1.05469 0.29297,-0.56641 0.5664,-1.07422 0.27344,-0.52734 0.41016,-0.76172 0.56641,-0.95703 1.30859,-2.03125 0.74219,-1.07422 1.67969,-1.97265 0.95703,-0.91797 2.14844,-1.50391 1.1914,-0.60547 2.61719,-0.60547 1.09375,0 1.875,0.33203 0.80078,0.3125 1.30859,0.83985 0.50781,0.52734 0.74219,1.21093 0.2539,0.66407 0.2539,1.36719 z"
         style="font-weight:bold;font-family:'Segoe Script';-inkscape-font-specification:'Segoe Script, Bold'"
         id="path44107" />
      <path
         id="path44109"
         style="font-weight:bold;font-size:53.3333px;font-family:'Segoe Script';-inkscape-font-specification:'Segoe Script, Bold';fill:#c89c00"
         d="m 206.47461,372.42969 c -1.09375,0 -2.20552,0.0781 -3.33399,0.23437 -1.1111,0.13889 -2.2309,0.32119 -3.35937,0.54688 -1.12847,0.2257 -2.2563,0.46006 -3.38477,0.70312 -1.12847,0.24306 -2.25629,0.46941 -3.38476,0.67774 -0.3125,0.0521 -0.8073,0.13021 -1.48438,0.23437 -0.67708,0.10417 -1.4503,0.21636 -2.31836,0.33789 -0.85069,0.12153 -1.75412,0.25175 -2.70898,0.39063 -0.9375,0.12153 -1.82292,0.23373 -2.65625,0.33789 -0.81597,0.10417 -1.53517,0.19232 -2.16016,0.26172 -0.60764,0.0695 -1.02431,0.10351 -1.25,0.10351 -1.19792,0 -2.39584,0.0701 -3.59375,0.20899 -4.59642,0.47691 -2.80071,2.5744 -3.95703,6.6289 -0.13891,0.22569 -0.23305,0.47808 -0.28515,0.75586 -0.0521,0.27777 -0.0781,0.56424 -0.0781,0.85938 v 0.33789 c 0.0173,0.0347 0.0434,0.12283 0.0781,0.26172 0,0.38195 0.15625,0.69445 0.46875,0.9375 0.3125,0.22569 0.67708,0.40798 1.09375,0.54687 0.41667,0.12155 0.84136,0.20767 1.27539,0.25977 0.43403,0.0347 0.77257,0.0527 1.01562,0.0527 1.18056,0 2.43056,-0.0701 3.75,-0.20898 1.31945,-0.13889 2.60352,-0.28711 3.85352,-0.44336 0.98958,-0.12153 1.91103,-0.2257 2.76172,-0.3125 0.85069,-0.10415 1.55382,-0.15625 2.10937,-0.15625 -0.0347,0.38195 -0.11284,1.03298 -0.23437,1.95312 -0.10417,0.92013 -0.23438,2.00586 -0.39063,3.25586 -0.13889,1.23264 -0.28711,2.56077 -0.44336,3.98438 -0.15625,1.40625 -0.30447,2.79448 -0.44336,4.16601 -0.12153,1.35417 -0.2257,2.63022 -0.3125,3.82813 -0.0868,1.18055 -0.1289,2.16211 -0.1289,2.94336 0,0.46875 0.008,0.99761 0.0254,1.58789 0.0174,0.57291 0.0514,1.16384 0.10351,1.77148 0.0521,0.59028 0.12219,1.17123 0.20899,1.74414 0.0868,0.57292 0.20898,1.07769 0.36523,1.51172 0.13889,0.38194 0.32922,0.74652 0.57227,1.09375 0.24306,0.32986 0.52149,0.62436 0.83398,0.88477 0.3125,0.24306 0.63302,0.43337 0.96289,0.57226 0.32986,0.15628 0.64236,0.23438 0.9375,0.23438 0.45139,0 0.85005,-0.11219 1.19727,-0.33789 0.36459,-0.20833 0.66906,-0.48677 0.91211,-0.83399 0.24305,-0.34722 0.42534,-0.73784 0.54687,-1.17187 0.13884,-0.43403 0.20899,-0.85872 0.20899,-1.27539 0,-0.0347 -0.026,-0.2691 -0.0781,-0.70313 -0.0521,-0.43403 -0.11419,-0.93685 -0.18359,-1.50976 -0.0695,-0.57292 -0.12954,-1.14584 -0.18164,-1.71875 -0.0521,-0.59028 -0.0781,-1.04297 -0.0781,-1.35547 0,-2.29167 0.11219,-4.60938 0.33789,-6.95313 0.24305,-2.36111 0.49545,-4.75694 0.75586,-7.1875 l 0.67774,-6.25 c 0,-0.24306 0.0421,-0.51953 0.1289,-0.83203 0.10417,-0.32986 0.21832,-0.53021 0.33985,-0.59961 0.17361,-0.10417 0.45008,-0.21636 0.83203,-0.33789 0.39931,-0.13889 0.86003,-0.26909 1.38086,-0.39062 0.52083,-0.12153 1.08573,-0.24371 1.69336,-0.36524 0.60764,-0.12153 1.21462,-0.2257 1.82226,-0.3125 0.60764,-0.0868 1.18859,-0.15688 1.74414,-0.20898 0.57291,-0.0521 1.07769,-0.0781 1.51172,-0.0781 0.67708,0 1.26606,0.01 1.76953,0.0273 0.52083,0 1.01563,0.008 1.48438,0.0254 0.46875,0.0174 0.94748,0.0354 1.43359,0.0527 h 1.69141 c 0.27778,0 0.56424,-0.026 0.85937,-0.0781 0.3125,-0.0694 0.59896,-0.19163 0.85938,-0.36524 0.26041,-0.19097 0.46875,-0.44336 0.625,-0.75586 0.17362,-0.32986 0.26172,-0.76259 0.26172,-1.30078 0,-0.17361 -0.0441,-0.39193 -0.13086,-0.65234 -0.0868,-0.27778 -1.15647,-5.59722 -1.33008,-5.875 -0.15625,-0.27777 -0.34853,-0.52821 -0.57422,-0.75391 -0.2257,-0.2257 -0.48612,-0.38195 -0.78125,-0.46875 -0.38195,-0.12153 -0.79861,-0.21771 -1.25,-0.28711 -0.43403,-0.0695 -0.85069,-0.12155 -1.25,-0.15625 -0.39931,-0.0347 -0.75391,-0.0527 -1.06641,-0.0527 -0.3125,-0.017 -0.53884,-0.0254 -0.67773,-0.0254 z m -3.05469,3.10351 c 0.18415,1.93483 -4.34223,6.41782 -10.71484,7.23242 -6.37278,0.81347 -12.14292,-2.25871 -12.45117,-4.17773 0,0 7.58245,0.45147 11.47461,-0.0488 3.89205,-0.5009 11.6914,-3.00586 11.6914,-3.00586 z" />
      <path
         d="m 234.8834,397.07675 q 0,0.19922 -0.0885,0.53125 -0.0885,0.33203 -0.26562,0.66406 -0.17709,0.33203 -0.46485,0.57552 -0.26562,0.24349 -0.66406,0.26563 -0.0885,0 -0.3763,0 -0.28776,-0.0221 -0.61979,-0.0443 -0.33203,-0.0221 -0.61979,-0.0221 -0.28776,-0.0221 -0.42058,-0.0221 -3.69661,0.19922 -6.39713,2.65625 -0.61979,0.55338 -1.28385,1.30598 -0.64193,0.75261 -1.28385,1.66016 -0.61979,0.88542 -1.19532,1.90364 -0.57552,1.01823 -1.04036,2.125 -0.3763,0.90755 -0.73047,1.88151 -0.35416,0.95182 -0.61979,2.01432 -0.15495,0.57552 -0.24349,1.01823 -0.0664,0.42057 -0.24349,0.99609 -0.11067,0.35417 -0.3763,0.59766 -0.26562,0.26562 -0.61979,0.42057 -0.35417,0.17709 -0.7526,0.26563 -0.37631,0.0885 -0.75261,0.11067 -1.41666,0 -1.94791,-1.28385 -0.53125,-1.28385 -0.53125,-3.82942 0,-0.57552 0,-1.08464 0.0221,-0.50911 0.0443,-1.01823 0.0443,-0.53125 0.0885,-1.08463 0.0443,-0.57552 0.11068,-1.28385 0.0885,-1.04037 0.24349,-2.45703 0.15494,-1.4388 0.33203,-2.89974 0.17708,-1.48307 0.3763,-2.85547 0.22135,-1.37239 0.44271,-2.32422 0.26562,-1.17317 0.88541,-1.83723 0.64193,-0.66407 1.85938,-0.66407 0.35416,0 0.70833,0.19922 0.3763,0.17709 0.66406,0.44271 0.28776,0.26563 0.48698,0.57552 0.19922,0.3099 0.22135,0.55339 l 0.0221,0.39843 q 0,0.6198 -0.11068,1.46094 -0.11067,0.84115 -0.30989,1.79297 -0.17709,0.92968 -0.39844,1.90364 -0.19922,0.95182 -0.42057,1.83724 -0.19922,0.86328 -0.3763,1.61588 -0.15495,0.73047 -0.24349,1.21745 0.77474,-1.63802 1.66015,-3.14322 0.88542,-1.52735 1.90365,-2.8112 1.01822,-1.30599 2.1914,-2.32422 1.17318,-1.01823 2.52344,-1.63802 1.0625,-0.48698 1.94791,-0.73047 0.88542,-0.26562 1.59375,-0.26562 0.84115,0 1.72656,0.17708 0.90755,0.17709 1.63802,0.53125 0.7526,0.33203 1.23958,0.81901 0.48698,0.48698 0.48698,1.10677 z"
         style="font-weight:bold;font-size:45.3333px;font-family:'Segoe Script';-inkscape-font-specification:'Segoe Script, Bold'"
         id="path44111" />
      <path
         d="m 249.40422,394.50905 q 0,-0.0664 -0.0443,-0.24349 -0.0221,-0.19922 -0.0664,-0.3099 -0.73047,0.0885 -1.61589,0.57552 -0.86328,0.46484 -1.88151,1.4388 -0.99609,0.97396 -2.14713,2.52344 -1.15104,1.52734 -2.41276,3.74088 -0.33203,0.59766 -0.70833,1.30599 -0.3763,0.6862 -0.70833,1.48307 -0.3099,0.79688 -0.50912,1.70443 -0.19922,0.88541 -0.19922,1.88151 0,0.3763 0.19922,0.57552 0.22136,0.17708 0.44271,0.17708 0.50911,0 1.30599,-0.57552 0.81901,-0.59766 1.74869,-1.57161 0.95183,-0.97396 1.92578,-2.21354 0.9961,-1.26172 1.83724,-2.56771 0.84115,-1.32813 1.46094,-2.61198 0.64193,-1.30599 0.88542,-2.34635 0.0664,-0.33203 0.15494,-0.77474 0.0885,-0.44271 0.15495,-0.86328 0.0885,-0.44271 0.13281,-0.79687 0.0443,-0.35417 0.0443,-0.53125 z m 17.86327,2.78906 q 0,0.39843 -0.13281,0.84114 -0.13281,0.44271 -0.35417,0.88542 -0.19921,0.44271 -0.46484,0.88541 -0.26562,0.44271 -0.55338,0.81901 -1.28386,1.72656 -2.76693,3.25391 -1.46094,1.5052 -2.94401,2.83333 -0.79687,0.70833 -1.63802,1.28385 -0.84114,0.57552 -1.68229,0.99609 -0.84114,0.42058 -1.63802,0.64193 -0.79687,0.22136 -1.48307,0.22136 -0.84114,0 -1.61588,-0.53125 -0.77474,-0.53125 -1.3724,-1.32813 -0.57552,-0.81901 -0.92969,-1.74869 -0.33203,-0.92969 -0.33203,-1.72657 -0.26562,0.39844 -0.77474,1.0625 -0.50911,0.66407 -1.06249,1.35026 -0.55339,0.6862 -1.04037,1.26172 -0.46484,0.55339 -0.66406,0.79687 -0.70833,0.75261 -1.63802,1.54948 -0.92969,0.79688 -1.85937,1.4388 -0.90756,0.64193 -1.70443,1.0625 -0.79687,0.39844 -1.21745,0.39844 -0.97395,0 -1.88151,-0.3099 -0.90755,-0.30989 -1.61588,-0.88541 -0.6862,-0.59766 -1.10677,-1.46094 -0.42057,-0.86328 -0.42057,-1.97005 0,-1.08463 0.28776,-2.36849 0.30989,-1.30599 0.81901,-2.70052 0.53125,-1.41666 1.26171,-2.85546 0.73047,-1.4388 1.57162,-2.78906 0.86328,-1.3724 1.8151,-2.58984 0.95182,-1.21745 1.94792,-2.16927 1.77083,-1.68229 3.76301,-2.47917 1.99219,-0.79687 4.11719,-0.79687 0.55338,0 0.92969,0.15494 0.3763,0.15495 0.64192,0.42058 0.26563,0.24349 0.44271,0.57552 0.19922,0.33203 0.35417,0.66406 0.11067,0.15495 0.35416,0.44271 0.26563,0.26562 0.53125,0.59765 0.26563,0.33203 0.46485,0.66407 0.19922,0.33203 0.19922,0.59765 0,0.46484 -0.13282,1.01823 -0.13281,0.53125 -0.28776,1.23958 -0.13281,0.70834 -0.26562,1.61589 -0.13281,0.88541 -0.13281,2.05859 0,0.66406 0.0885,1.54948 0.11067,0.88541 0.30989,1.66015 0.19922,0.77474 0.48698,1.32813 0.3099,0.53125 0.6862,0.53125 0.46484,0 0.81901,-0.0885 0.3763,-0.11067 0.70833,-0.28776 0.33203,-0.19921 0.66406,-0.46484 0.35417,-0.26562 0.79688,-0.57552 1.37239,-0.99609 2.74479,-2.30208 1.39453,-1.30599 2.83333,-2.67839 0.39844,-0.3763 0.81901,-0.84114 0.44271,-0.46484 0.88541,-0.86328 0.46485,-0.39844 0.90756,-0.66406 0.4427,-0.26563 0.84114,-0.26563 0.61979,0 0.61979,1.04037 z"
         style="font-weight:bold;font-size:45.3333px;font-family:'Segoe Script';-inkscape-font-specification:'Segoe Script, Bold'"
         id="path44113" />
      <path
         d="m 296.77399,404.66919 q 0,0.35417 -0.26563,0.79688 -0.24349,0.44271 -0.66406,0.88542 -0.42057,0.4427 -0.99609,0.86328 -0.55339,0.42057 -1.17318,0.7526 -1.19531,0.59766 -2.52344,0.88542 -1.30598,0.26562 -2.63411,0.26562 -0.81901,0 -1.79297,-0.28776 -0.97395,-0.28776 -1.85937,-0.86328 -0.88542,-0.59766 -1.54948,-1.50521 -0.64192,-0.90755 -0.81901,-2.14713 -0.0664,0.3763 -0.22135,0.81901 -0.15495,0.42057 -0.35417,0.86328 -0.19922,0.42057 -0.42057,0.86328 -0.19922,0.42057 -0.39844,0.79687 -0.55338,1.0625 -1.21744,2.16927 -0.64193,1.08464 -1.30599,2.08073 -0.66407,0.99609 -1.26172,1.83724 -0.57552,0.81901 -0.99609,1.35026 -0.55339,0.73047 -1.15104,1.15104 -0.59766,0.44271 -1.15105,0.6862 -0.55338,0.24349 -0.99609,0.30989 -0.44271,0.0885 -0.6862,0.0885 -0.33203,0 -0.73046,-0.17708 -0.39844,-0.15495 -0.77474,-0.42057 -0.35417,-0.24349 -0.64193,-0.57552 -0.26562,-0.3099 -0.3763,-0.64193 -0.0221,-1.26172 -0.42057,-3.1875 -0.37631,-1.94791 -1.43881,-4.80338 -1.15104,-3.07682 -1.61588,-5.40104 -0.44271,-2.34635 -0.44271,-4.0065 0,-1.46094 0.90755,-2.36849 0.90756,-0.90755 2.47917,-0.90755 0.66406,0 1.10677,0.19922 0.44271,0.19921 0.73047,0.55338 0.28776,0.33203 0.39843,0.79687 0.13282,0.46485 0.13282,0.97396 0,0.64193 -0.19922,1.26172 -0.17709,0.61979 -0.17709,1.23958 0,0.75261 0.15495,1.70443 0.17709,0.95182 0.42058,2.01432 0.26562,1.0625 0.57552,2.16927 0.33203,1.10677 0.64192,2.14713 0.3099,1.04037 0.57552,1.97005 0.26563,0.92969 0.42058,1.61589 0.33203,-0.44271 0.77473,-1.15104 0.46485,-0.70834 0.92969,-1.48307 0.46484,-0.79688 0.88542,-1.52735 0.44271,-0.7526 0.70833,-1.26172 0.3099,-0.59765 0.70833,-1.41666 0.39844,-0.84115 0.77474,-1.72656 0.39844,-0.90755 0.70833,-1.79297 0.33204,-0.88542 0.48698,-1.57161 0.19922,-0.9961 0.88542,-1.68229 0.70833,-0.6862 1.83724,-0.6862 0.35416,0 0.7526,0.13281 0.39844,0.11068 0.75261,0.44271 0.35416,0.30989 0.57552,0.84114 0.24348,0.50912 0.26562,1.30599 0.0221,1.32813 0.42057,2.41276 0.39844,1.0625 0.9961,1.83724 0.61979,0.7526 1.32812,1.17318 0.73047,0.39843 1.39453,0.39843 0.53125,0 1.10677,-0.0664 0.59766,-0.0885 1.17318,-0.22136 0.57552,-0.13281 1.10677,-0.30989 0.53125,-0.19922 0.92968,-0.39844 0.66407,-0.35417 1.19532,-0.57552 0.53124,-0.22135 1.08463,-0.22135 0.57552,0.0443 0.7526,0.26562 0.17709,0.19922 0.17709,0.46484 z"
         style="font-weight:bold;font-size:45.3333px;font-family:'Segoe Script';-inkscape-font-specification:'Segoe Script, Bold'"
         id="path44115" />
      <path
         d="m 305.73883,394.99602 q 0,-0.86328 -0.28776,-1.21744 -0.26562,-0.35417 -0.53125,-0.35417 -0.59766,0 -1.21745,0.39844 -0.59765,0.39844 -1.17317,1.0625 -0.55339,0.66406 -1.08464,1.52734 -0.50911,0.84115 -0.90755,1.77083 -0.39844,0.90755 -0.66406,1.8151 -0.26563,0.88542 -0.35417,1.61589 1.39453,-1.12891 2.54557,-2.10286 1.15104,-0.9961 1.94792,-1.83724 0.81901,-0.84115 1.26172,-1.50521 0.46484,-0.6862 0.46484,-1.17318 z m 16.64582,-0.28776 q 0,0.48698 -0.44271,1.61589 -0.4427,1.1289 -1.21744,2.5677 -0.77474,1.41667 -1.81511,3.01042 -1.04036,1.57161 -2.23567,2.96614 -1.23958,1.46094 -2.78906,2.85547 -1.54948,1.39453 -3.34245,2.5013 -1.77083,1.08463 -3.76302,1.7487 -1.97005,0.66406 -4.09505,0.66406 -2.27994,0 -3.87369,-0.73047 -1.59375,-0.7526 -2.61198,-1.97005 -0.99609,-1.21745 -1.46093,-2.76693 -0.44271,-1.54947 -0.44271,-3.14322 0,-1.39453 0.26562,-2.78906 0.28776,-1.41667 0.77474,-2.76693 0.50912,-1.35026 1.19531,-2.61198 0.6862,-1.26171 1.52735,-2.32421 0.53125,-0.6862 1.30598,-1.46094 0.79688,-0.77474 1.79297,-1.41666 1.01823,-0.66407 2.21354,-1.08464 1.19531,-0.44271 2.54557,-0.44271 1.04037,0 1.81511,0.44271 0.79687,0.42057 1.30598,1.08464 0.53125,0.66406 0.79688,1.48307 0.26562,0.79687 0.26562,1.52734 0,1.30599 -0.50911,2.56771 -0.50911,1.26171 -1.61588,2.58984 -1.10677,1.32812 -2.89974,2.76692 -1.77083,1.4388 -4.31641,3.07682 -0.17708,0.11068 -0.39843,0.24349 -0.22136,0.13282 -0.42058,0.26563 -0.19921,0.13281 -0.33203,0.24349 -0.11067,0.0885 -0.11067,0.11068 0.11067,0.48697 0.28776,0.97395 0.17708,0.48698 0.57552,0.88542 0.39843,0.3763 1.08463,0.61979 0.6862,0.24349 1.79297,0.24349 0.86328,0 1.83724,-0.17708 0.97396,-0.19922 1.97005,-0.57552 0.99609,-0.37631 1.94791,-0.90756 0.97396,-0.55338 1.83724,-1.26171 1.12891,-0.90755 2.36849,-2.14714 1.23958,-1.23958 2.43489,-2.67838 1.21745,-1.46094 2.30209,-3.07682 1.10677,-1.61589 1.94791,-3.29818 0.33203,-0.64192 0.86328,-0.88541 0.53125,-0.24349 0.90755,-0.24349 0.26563,0 0.48698,0.35416 0.24349,0.35417 0.24349,1.35026 z"
         style="font-weight:bold;font-size:45.3333px;font-family:'Segoe Script';-inkscape-font-specification:'Segoe Script, Bold'"
         id="path44117" />
      <path
         d="m 336.9276,406.13013 q 0,0.3099 -0.22135,0.81901 -0.22136,0.50912 -0.55339,1.08464 -0.30989,0.55338 -0.6862,1.10677 -0.35416,0.53125 -0.64192,0.88541 -0.88542,1.08464 -1.99219,2.10286 -1.08463,0.9961 -2.30208,1.77084 -1.19531,0.7526 -2.47916,1.19531 -1.26172,0.46484 -2.5013,0.46484 -1.94792,0 -3.34245,-0.73047 -1.39453,-0.70833 -2.30208,-2.10286 -0.90755,-1.39453 -1.35026,-3.43099 -0.42057,-2.03645 -0.42057,-4.64843 0,-1.57161 0.15494,-3.43099 0.15495,-1.88151 0.42058,-3.87369 0.26562,-1.99219 0.64192,-4.00651 0.3763,-2.03646 0.81901,-3.89583 0.44271,-1.88151 0.92969,-3.51953 0.50911,-1.63802 1.01823,-2.83333 0.53125,-1.21745 1.0625,-1.90365 0.53125,-0.70833 1.04036,-0.70833 0.44271,0 0.79688,0.17708 0.3763,0.17709 0.66406,0.44271 0.28776,0.26563 0.50911,0.61979 0.22136,0.33203 0.3763,0.66407 -0.0885,0.97395 -0.35416,2.45703 -0.26563,1.48307 -0.64193,3.16536 -0.35417,1.66015 -0.7526,3.38671 -0.3763,1.70443 -0.70834,3.16537 -0.24349,1.08463 -0.42057,2.27994 -0.17708,1.19531 -0.30989,2.39063 -0.11068,1.19531 -0.17709,2.36848 -0.0443,1.15104 -0.0443,2.19141 0,3.40885 0.77474,5.22395 0.77474,1.81511 2.58984,1.81511 1.12891,0 2.16927,-0.37631 1.0625,-0.39843 2.01432,-0.99609 0.97396,-0.61979 1.81511,-1.39453 0.86328,-0.77474 1.54947,-1.52734 0.50912,-0.55339 1.04037,-1.01823 0.55338,-0.48698 0.92969,-0.48698 0.61979,0 0.7526,0.24349 0.13281,0.24349 0.13281,0.86328 z"
         style="font-weight:bold;font-size:45.3333px;font-family:'Segoe Script';-inkscape-font-specification:'Segoe Script, Bold'"
         id="path44119" />
    </g>
    <path
       id="path45523"
       style="fill:#c89c00;fill-opacity:1;stroke:none;stroke-width:1.11183"
       d="m 49.279529,97.762854 a 1.175654,0.52522715 85.225836 0 0 -0.431032,1.133799 l 1.044167,-0.08721 a 1.175654,0.52522715 85.225836 0 0 -0.613135,-1.046592 z" />
    <path
       id="path45523-6"
       style="fill:#c89c00;fill-opacity:1;stroke:none;stroke-width:1.11183"
       d="m 51.66983,97.494705 a 1.175654,0.52522715 85.225836 0 0 -0.431032,1.133799 l 1.044167,-0.08721 A 1.175654,0.52522715 85.225836 0 0 51.66983,97.494702 Z" />
  </g>
  <path
     style="fill:#000000;stroke-width:0.0375517"
     d="m 103.05006,2.6829985 c -0.19072,-0.1273996 -0.35025,-0.28077 -0.33598,-0.3230075 0.005,-0.015324 0.0386,-0.048341 0.0743,-0.073371 0.0561,-0.039305 0.0786,-0.034246 0.16551,0.037111 0.0971,0.079744 0.10791,0.079076 0.31133,-0.019212 0.30732,-0.1484927 0.64245,-0.4894319 0.84277,-0.8573966 0.0717,-0.1316671 0.058,-0.1386925 -0.14015,-0.071788 -0.16477,0.055645 -0.36623,0.2429827 -0.41787,0.3885797 -0.0817,0.2305078 -0.23845,0.169254 -0.29759,-0.1163255 -0.0788,-0.3807607 0.0804,-0.71301201 0.43734,-0.91276781 l 0.16987,-0.0950537 -0.26885,-0.0908652 c -0.1505,-0.0508652 -0.27349,-0.11087279 -0.27938,-0.136315 -0.0313,-0.13477686 0.24992,-0.34364644 0.51495,-0.38256981 0.33688,-0.0494758 0.64392,0.0783086 0.87071,0.36236673 l 0.10442,0.13081044 0.16238,-0.0406345 c 0.35261,-0.0882396 0.67422,-0.003553 0.91201,0.24014622 0.18708,0.19172482 0.28387,0.52832783 0.17728,0.61652893 -0.0201,0.01665 -0.15429,-0.010257 -0.30479,-0.061122 l -0.26885,-0.090865 0.0774,0.1786164 c 0.18692,0.431474 0.0507,0.8707085 -0.33347,1.0748368 -0.15817,0.084059 -0.22038,0.023767 -0.18297,-0.1773671 0.0425,-0.2283314 0.0117,-0.4013456 -0.1009,-0.568388 -0.0512,-0.075987 -0.10012,-0.1335652 -0.10863,-0.1279511 -0.009,0.00561 -0.0895,0.1681285 -0.18005,0.3611428 -0.14303,0.3049871 -0.28737,0.5293465 -0.47264,0.734651 -0.0453,0.050221 -0.0363,0.056902 0.0981,0.072807 0.28648,0.033888 0.66647,0.1933148 0.86129,0.3613619 0.19818,0.1709369 0.21552,0.2146314 0.11362,0.2863836 -0.064,0.04504 -0.0746,0.040755 -0.21751,-0.087322 -0.25699,-0.2303989 -0.50144,-0.3140217 -1.02968,-0.3522397 -0.50716,-0.036693 -0.6957,-0.08823 -0.95402,-0.2607809 z m 0.64828,0.01897 c 0.21197,0.027396 0.57395,-0.4138016 0.80586,-0.9822195 l 0.13857,-0.3396412 -0.1047,-0.035385 c -0.10284,-0.034759 -0.10745,-0.030531 -0.2605,0.2389737 -0.22174,0.3904681 -0.39738,0.5876189 -0.71922,0.8073358 l -0.28157,0.1922153 0.15387,0.052006 c 0.0846,0.028604 0.20509,0.058625 0.26769,0.066715 z m 0.0889,-1.4870332 c 0.15789,-0.083688 0.51767,-0.1461247 0.62906,-0.1091679 0.0475,0.015745 0.0724,-0.00908 0.10446,-0.1038183 0.0362,-0.10733781 0.0305,-0.12844921 -0.0424,-0.15305861 -0.12743,-0.043067 -0.40902,-0.030222 -0.57636,0.026289 -0.18204,0.061474 -0.37047,0.23887081 -0.42494,0.40005741 -0.0546,0.1613583 -0.0274,0.1990261 0.0731,0.1016754 0.0457,-0.044191 0.15233,-0.1170813 0.23703,-0.1619775 z m 1.60957,0.7133962 c 0.0556,-0.164681 0.0145,-0.4190244 -0.0938,-0.5796559 -0.0988,-0.1464429 -0.31481,-0.3274842 -0.44224,-0.37055091 -0.0728,-0.024609 -0.0903,-0.011373 -0.12655,0.095965 -0.032,0.094734 -0.0272,0.129627 0.02,0.1459002 0.20482,0.0705 0.58509,0.6437922 0.53174,0.801644 -0.009,0.027749 0.002,0.04597 0.026,0.04049 0.0237,-0.00548 0.0619,-0.065687 0.0849,-0.1337924 z m -0.8532,-1.36081967 c -0.077,-0.2005685 -0.38441,-0.34899151 -0.66449,-0.32079474 -0.31282,0.0314937 -0.27871,0.0676142 0.22449,0.23768287 0.43228,0.14610177 0.46667,0.15259632 0.44,0.0831119 z m 1.29411,0.45920837 c -0.0193,-0.083266 -0.25484,-0.27842111 -0.39383,-0.32629934 -0.15495,-0.0533711 -0.36491,-0.0468418 -0.4643,0.0144392 -0.0634,0.039061 -0.0321,0.054756 0.4002,0.20085763 0.33304,0.11256011 0.46574,0.14472641 0.45793,0.11100251 z"
     id="path882" />
</svg>
