<?xml version="1.0" encoding="UTF-8" standalone="no"?>
<!-- Created with Inkscape (http://www.inkscape.org/) -->

<svg
   width="13.229167mm"
   height="13.229072mm"
   viewBox="0 0 13.229166 13.229072"
   version="1.1"
   id="svg5"
   inkscape:version="1.1.2 (b8e25be833, 2022-02-05)"
   sodipodi:docname="Favicon.svg"
   xmlns:inkscape="http://www.inkscape.org/namespaces/inkscape"
   xmlns:sodipodi="http://sodipodi.sourceforge.net/DTD/sodipodi-0.dtd"
   xmlns="http://www.w3.org/2000/svg"
   xmlns:svg="http://www.w3.org/2000/svg">
  <sodipodi:namedview
     id="namedview7"
     pagecolor="#ffffff"
     bordercolor="#666666"
     borderopacity="1.0"
     inkscape:pageshadow="2"
     inkscape:pageopacity="0.0"
     inkscape:pagecheckerboard="0"
     inkscape:document-units="mm"
     showgrid="false"
     inkscape:zoom="2"
     inkscape:cx="-5.25"
     inkscape:cy="-45.75"
     inkscape:window-width="1920"
     inkscape:window-height="1002"
     inkscape:window-x="-8"
     inkscape:window-y="-8"
     inkscape:window-maximized="1"
     inkscape:current-layer="layer1"
     fit-margin-top="0"
     fit-margin-left="0"
     fit-margin-right="0"
     fit-margin-bottom="0" />
  <defs
     id="defs2">
    <rect
       x="108.01347"
       y="367.79269"
       width="568.77979"
       height="252.94293"
       id="rect2630" />
  </defs>
  <g
     inkscape:label="Laag 1"
     inkscape:groupmode="layer"
     id="layer1"
     transform="translate(-45.654387,-131.35572)">
    <path
       id="path44109-9"
       style="font-weight:bold;font-size:53.3333px;line-height:1.25;font-family:'Segoe Script';-inkscape-font-specification:'Segoe Script, Bold';white-space:pre;shape-inside:url(#rect2630);fill:#c89c00;stroke-width:0.301191"
       d="m 56.606211,132.46634 c -0.352776,0 -0.711366,0.0221 -1.07534,0.0658 -0.358373,0.039 -0.719552,0.0903 -1.083527,0.15382 -0.363975,0.0635 -0.727744,0.12939 -1.091719,0.19775 -0.363975,0.0683 -0.727741,0.13203 -1.091717,0.19062 -0.100792,0.0147 -0.260385,0.0367 -0.478768,0.0658 -0.218386,0.0293 -0.46778,0.0608 -0.747762,0.0951 -0.274381,0.0342 -0.565772,0.0708 -0.873752,0.10982 -0.302379,0.0343 -0.587962,0.0658 -0.856742,0.0951 -0.263183,0.0293 -0.495153,0.0541 -0.696736,0.0736 -0.195987,0.0196 -0.33038,0.029 -0.403174,0.029 -0.386374,0 -0.77275,0.0196 -1.159123,0.0589 -1.482524,0.13414 -0.903337,0.72407 -1.276294,1.86443 -0.04479,0.0635 -0.07517,0.13446 -0.09198,0.21258 -0.0168,0.0781 -0.02519,0.1587 -0.02519,0.2417 v 0.0951 c 0.0056,0.009 0.014,0.0344 0.02519,0.0737 0,0.10741 0.05039,0.19533 0.15119,0.2637 0.100793,0.0635 0.218384,0.11478 0.352776,0.1538 0.134393,0.0343 0.271371,0.0583 0.411364,0.073 0.139989,0.009 0.249183,0.0149 0.327576,0.0149 0.380776,0 0.783949,-0.0197 1.20952,-0.0589 0.425573,-0.039 0.839736,-0.0807 1.242909,-0.1247 0.319179,-0.0343 0.616381,-0.0635 0.890762,-0.0879 0.274381,-0.0293 0.501167,-0.044 0.680353,-0.044 -0.01125,0.10741 -0.03639,0.29054 -0.07559,0.54935 -0.0336,0.25879 -0.07559,0.56414 -0.125994,0.91572 -0.04479,0.34668 -0.0926,0.72022 -0.143002,1.12063 -0.05039,0.39552 -0.0982,0.78597 -0.142999,1.17171 -0.0392,0.38087 -0.0728,0.73976 -0.100793,1.07669 -0.02801,0.33202 -0.04158,0.6081 -0.04158,0.82783 0,0.13185 0.0025,0.28058 0.0082,0.44661 0.0056,0.16114 0.01658,0.32734 0.03339,0.49825 0.0168,0.16601 0.03941,0.32941 0.06742,0.49054 0.02801,0.16113 0.0674,0.30311 0.117791,0.42518 0.04481,0.10739 0.10619,0.20996 0.18458,0.30762 0.0784,0.0928 0.168201,0.17562 0.268991,0.24886 0.100793,0.0683 0.204174,0.12189 0.310569,0.16094 0.106389,0.0439 0.207186,0.0658 0.30238,0.0658 0.145591,0 0.274174,-0.0316 0.386165,-0.0951 0.117607,-0.0586 0.215799,-0.1369 0.294191,-0.23456 0.0784,-0.0977 0.137189,-0.20753 0.176388,-0.3296 0.04479,-0.12206 0.06742,-0.24152 0.06742,-0.3587 0,-0.009 -0.0085,-0.0757 -0.02519,-0.19777 -0.0168,-0.12207 -0.03683,-0.26349 -0.05921,-0.42462 -0.02242,-0.16113 -0.04179,-0.32228 -0.05859,-0.48342 -0.0168,-0.16602 -0.02519,-0.29333 -0.02519,-0.38123 0,-0.64453 0.03618,-1.29642 0.108982,-1.95561 0.0784,-0.66408 0.159801,-1.33791 0.243794,-2.02152 l 0.218596,-1.75786 c 0,-0.0683 0.01359,-0.14611 0.04157,-0.23401 0.0336,-0.0927 0.07041,-0.14912 0.109617,-0.16864 0.05598,-0.0293 0.145166,-0.0609 0.26836,-0.095 0.128799,-0.039 0.277394,-0.0757 0.445382,-0.10982 0.167988,-0.0343 0.35019,-0.0685 0.546173,-0.10267 0.195988,-0.0343 0.391763,-0.0635 0.587751,-0.0879 0.195986,-0.0245 0.383365,-0.0442 0.562551,-0.0589 0.184786,-0.0147 0.347596,-0.0221 0.487589,-0.0221 0.218384,0 0.408353,0.003 0.570741,0.007 0.167988,0 0.32758,0.003 0.478771,0.007 0.15119,0.006 0.305599,0.009 0.462388,0.0147 h 0.545546 c 0.0896,0 0.181989,-0.007 0.277181,-0.0221 0.100792,-0.0196 0.193185,-0.0539 0.277181,-0.10267 0.08399,-0.0536 0.151191,-0.1247 0.201587,-0.2126 0.056,-0.0927 0.08442,-0.21447 0.08442,-0.36584 0,-0.0488 -0.01422,-0.11028 -0.0422,-0.18348 -0.02801,-0.0781 -0.373007,-1.57426 -0.429003,-1.65238 -0.05039,-0.0781 -0.11242,-0.14856 -0.185207,-0.21203 -0.0728,-0.0635 -0.156793,-0.1074 -0.251984,-0.13185 -0.12319,-0.0342 -0.257583,-0.0612 -0.403173,-0.0807 -0.139992,-0.0196 -0.274381,-0.0343 -0.403174,-0.0439 -0.128798,-0.009 -0.243164,-0.0147 -0.343957,-0.0147 -0.100793,-0.004 -0.173798,-0.007 -0.218595,-0.007 z m -0.985254,0.87289 c 0.05938,0.54417 -1.400538,1.80504 -3.455952,2.03416 -2.055467,0.22879 -3.916561,-0.63528 -4.015984,-1.17501 0,0 2.445634,0.12697 3.701006,-0.0138 1.255336,-0.14087 3.77093,-0.84541 3.77093,-0.84541 z" />
    <path
       id="path45523-1"
       style="fill:#c89c00;fill-opacity:1;stroke:none;stroke-width:1.26566"
       d="m 50.084069,131.64162 a 1.2512155,0.63951859 84.067219 0 0 -0.525446,1.20524 l 1.272885,-0.0927 a 1.2512155,0.63951859 84.067219 0 0 -0.747439,-1.11254 z" />
    <path
       id="path45523-6-9"
       style="fill:#c89c00;fill-opacity:1;stroke:none;stroke-width:1.26566"
       d="m 52.997952,131.35658 a 1.2512155,0.63951859 84.067219 0 0 -0.525448,1.20525 l 1.272886,-0.0927 a 1.2512155,0.63951859 84.067219 0 0 -0.747438,-1.11255 z" />
  </g>
</svg>
