<?xml version="1.0" encoding="UTF-8" standalone="no"?>
<!-- Created with Inkscape (http://www.inkscape.org/) -->

<svg
   width="10.583315mm"
   height="46.568592mm"
   viewBox="0 0 10.583315 46.56859"
   version="1.1"
   id="svg5"
   xmlns="http://www.w3.org/2000/svg"
   xmlns:svg="http://www.w3.org/2000/svg">
  <defs
     id="defs2" />
  <g
     id="layer1"
     transform="translate(-90.622774,-229.6177)">
    <path
       id="path872"
       style="fill:#000000;stroke-width:0.230014"
       d="m 95.27846,229.7334 c -0.175079,0.0747 -0.580945,0.42354 -0.901925,0.77486 -0.477058,0.52218 -0.583598,0.8531 -0.583598,1.8128 0,1.02492 0.0924,1.26933 0.72738,1.92428 0.400062,0.41264 0.684727,0.80037 0.63259,0.86162 -0.203829,0.23937 -0.939107,5.32527 -0.840029,5.81047 0.05783,0.28327 0.307155,0.78806 0.554044,1.12184 0.33597,0.45423 0.420084,0.8163 0.334377,1.43935 -0.297947,2.16593 -2.136072,2.59915 -3.105214,0.73189 -0.510514,-0.98364 -0.536354,-1.64115 -0.09366,-2.38359 0.298921,-0.50133 0.363961,-0.51825 0.659138,-0.17166 0.386773,0.45436 0.969114,0.0627 0.777747,-0.52326 -0.327787,-1.00347 -2.148782,0.27559 -2.610862,1.83375 -0.274232,0.92477 -0.274232,1.17902 0,2.11092 0.403616,1.3716 1.762461,2.29155 3.046458,2.06245 l 0.824718,-0.1472 -0.128258,1.06788 c -0.07055,0.58735 0.05988,5.38698 0.289863,10.6659 0.656515,15.06998 0.769255,17.19962 0.919877,17.37656 0.298844,0.35107 0.46674,-0.32774 0.647597,-3.37701 0.07117,-1.19988 0.14434,-2.76681 0.228288,-4.78246 0.179724,-4.31528 0.420126,-9.64088 0.534234,-11.83473 0.114103,-2.19383 0.207916,-5.14758 0.208441,-6.56391 l 0.0011,-2.57512 0.635919,0.16401 c 0.820328,0.21171 1.929062,-0.22379 2.551595,-1.00233 0.34812,-0.43529 0.5185,-1.00221 0.5852,-1.94711 0.0862,-1.22085 0.0368,-1.4098 -0.58797,-2.24562 -0.37516,-0.50191 -1.214623,-0.82103 -1.33734,-0.82103 -0.122721,0 -0.256339,0.0973 -0.06319,0.34772 0.654713,0.84986 0.87438,3.25434 0.01004,3.64396 -1.821233,0.82097 -3.206958,-1.47938 -1.985507,-3.29603 0.392136,-0.5832 0.428628,-0.86518 0.304724,-2.3543 -0.07743,-0.93046 -0.27603,-2.30179 -0.441354,-3.04741 -0.293553,-1.32396 -0.28861,-1.36978 0.211073,-1.95679 0.665524,-0.78178 1.041238,-2.38659 0.761281,-3.25162 -0.364528,-1.12628 -1.793705,-1.88535 -2.766735,-1.46941 z m 1.477298,2.05021 c 0.463913,1.01828 -0.438365,2.01644 -1.232268,1.3632 -0.80047,-0.65864 -0.458058,-1.84374 0.53271,-1.84374 0.264351,0 0.579151,0.21613 0.699558,0.48054 z m -0.382949,7.17905 c 0.06768,1.80074 0.04272,1.9384 -0.351584,1.9384 -0.389529,0 -0.422437,-0.15665 -0.40014,-1.90514 0.01329,-1.04782 0.09738,-2.22577 0.186687,-2.61762 l 0.162396,-0.71252 0.164878,0.67924 c 0.09069,0.37359 0.197664,1.55152 0.237743,2.61764 z m -0.25193,3.87049 c -0.0055,0.6885 -0.04002,0.74238 -0.229972,0.35881 -0.122945,-0.24823 -0.170768,-0.6129 -0.106321,-0.81025 0.196158,-0.60048 0.343101,-0.40322 0.336293,0.45144 z m 0.05607,13.39979 c -0.121416,6.21938 -0.181272,7.30843 -0.28768,5.23528 -0.187912,-3.66074 -0.210998,-13.70742 -0.03324,-14.45931 0.35496,-1.50131 0.467272,1.7269 0.320906,9.22403 z m 2.365414,-15.09449 c -0.06504,0.19904 -0.05898,0.47464 0.01354,0.61236 0.205057,0.38974 0.75477,0.0236 0.75477,-0.50245 0,-0.55294 -0.595679,-0.63817 -0.76823,-0.10984 z" />
  </g>
  <rect
     style="fill:#ff0400;fill-opacity:1;stroke-width:0.426"
     id="rect2266"
     width="0.30728343"
     height="9.9696417"
     x="5.1896763"
     y="34.245037" />
</svg>
