<?xml version="1.0" encoding="UTF-8" standalone="no"?>
<!-- Created with Inkscape (http://www.inkscape.org/) -->

<svg
   width="10.568691mm"
   height="34.26646mm"
   viewBox="0 0 10.568691 34.266459"
   version="1.1"
   id="svg5"
   xmlns="http://www.w3.org/2000/svg"
   xmlns:svg="http://www.w3.org/2000/svg">
  <defs
     id="defs2" />
  <g
     id="layer1"
     transform="translate(-90.658573,-234.95588)">
    <path
       style="fill:#000000;stroke-width:0.251879"
       d="m 96.941323,235.16797 c -1.17968,-0.4813 -2.048275,-0.15063 -2.800607,1.06579 -0.60857,0.984 -0.59203,1.7886 0.06556,3.19594 0.429089,0.91837 0.509226,1.36582 0.356648,1.99521 -0.108265,0.44633 -0.115337,1.48873 -0.01632,2.31661 0.174639,1.45474 0.160766,1.50157 -0.414534,1.39456 -0.327271,-0.0612 -0.955725,0.10122 -1.396429,0.3601 -0.629814,0.37009 -0.862039,0.71067 -1.085532,1.59113 -0.301129,1.18662 -0.01088,2.4285 0.499896,2.12911 0.442879,-0.26028 0.410672,-0.83072 -0.04407,-0.78153 -0.358878,0.0387 -0.380069,-0.0196 -0.233667,-0.6278 0.196128,-0.81858 1.223584,-1.47118 2.068868,-1.314 1.095787,0.20399 1.468078,2.0356 0.526173,2.58908 -0.318239,0.18708 -0.321722,0.35112 -0.01904,0.83327 0.611588,0.97091 0.387986,2.93928 -0.385319,3.3937 -1.130717,0.66445 -2.425163,-0.75471 -2.011498,-2.20522 0.39903,-1.39921 -0.731333,-1.29192 -1.278261,0.12129 -0.394052,1.01838 0.270662,2.69938 1.340418,3.38993 0.670889,0.43299 0.74904,0.57011 0.720669,1.26452 -0.04761,1.1657 0.06691,1.24028 0.354609,0.231 0.285896,-1.00247 0.479113,-1.18487 1.222469,-1.15399 0.71006,0.0293 0.731223,0.25767 0.119146,1.28279 -0.725838,1.21568 -0.81245,2.69249 -0.239652,4.08669 0.300531,0.73165 0.565888,2.36567 0.754971,4.64898 0.465838,5.6258 0.818135,5.65658 1.474036,0.12885 0.24346,-2.05274 0.655492,-4.16038 0.923,-4.72272 0.597116,-1.25531 0.549975,-2.48591 -0.149069,-3.89352 -0.481861,-0.97016 -0.491299,-1.10525 -0.09467,-1.33834 0.625733,-0.36771 1.218416,0.0387 1.480918,1.01582 0.203473,0.75713 0.234211,0.77831 0.31696,0.21832 0.05032,-0.34094 0.0359,-0.75541 -0.03182,-0.92066 -0.07318,-0.17796 0.06529,-0.3465 0.339321,-0.41329 1.197603,-0.29184 2.290393,-2.55519 1.804593,-3.73785 -0.30717,-0.74775 -1.173392,-1.27024 -1.397593,-0.84301 -0.07427,0.1412 -0.0408,0.32704 0.07399,0.41336 0.237473,0.1783 0.252433,1.41138 0.02177,1.88532 -0.776897,1.60282 -3.147247,0.36108 -2.648575,-1.38751 0.08678,-0.30452 0.108809,-0.67226 0.04896,-0.81793 -0.05984,-0.14576 0.06855,-0.36901 0.284943,-0.49622 0.337743,-0.19847 0.322728,-0.35824 -0.105821,-1.12373 -0.419186,-0.74893 -0.448674,-1.00297 -0.182799,-1.5806 0.426994,-0.92797 0.660308,-1.02524 1.712083,-0.71353 1.078705,0.3195 1.765472,1.54406 1.089092,1.94151 -0.534792,0.31429 -0.561451,0.8966 -0.03835,0.83996 0.59252,-0.064 0.77325,-1.48215 0.32899,-2.5806 -0.397404,-0.98217 -1.428832,-1.73091 -2.195011,-1.59302 -0.645129,0.1158 -0.698146,-0.12652 -0.457216,-2.08824 0.114794,-0.93499 0.09032,-1.90842 -0.05468,-2.1631 -0.200753,-0.3532 -0.122682,-0.60863 0.328739,-1.07562 0.712835,-0.73753 0.897375,-2.31487 0.409911,-3.50491 -0.251349,-0.61339 -0.611861,-0.93984 -1.38756,-1.25628 z m 0.156141,2.98612 c -0.196672,0.69003 -0.737779,1.0573 -1.249699,0.84855 -1.197361,-0.48849 -0.657288,-2.67869 0.557865,-2.26254 0.720424,0.24662 0.912744,0.63978 0.691834,1.41415 z m -0.665884,6.50486 c -0.139275,1.23418 -0.334044,2.21109 -0.432652,2.17088 -0.186335,-0.0758 -0.525003,-4.03323 -0.408822,-4.77558 0.03645,-0.23231 0.194224,-0.49779 0.350855,-0.58984 0.545268,-0.32047 0.742458,0.9637 0.490619,3.19454 z m -0.068,10.05071 c -0.403329,0.67182 -0.433795,0.67403 -0.820448,0.0602 -0.253525,-0.40256 -0.246996,-0.67582 0.02448,-1.07388 0.297485,-0.434 0.41546,-0.46562 0.631011,-0.16821 0.458331,0.63248 0.465077,0.67988 0.163485,1.18196 z m 0.390623,4.73823 c -0.419921,1.47245 -0.972779,1.63571 -1.560211,0.46089 -0.532321,-1.0649 -0.479984,-2.16922 0.151516,-3.1903 0.552695,-0.8937 0.71784,-0.82457 1.275922,0.53401 0.362171,0.88163 0.387523,1.30196 0.132747,2.1954 z m -0.799202,3.97096 c -0.05848,0.36208 -0.157772,0.54216 -0.220338,0.4003 -0.06147,-0.14249 -0.06637,-0.55407 -0.0081,-0.91615 0.05848,-0.36211 0.157774,-0.54221 0.220338,-0.40034 0.06148,0.14249 0.06637,0.55407 0.0081,0.91619 z"
       id="path1825" />
  </g>
</svg>
